External Loads File
version=1
nRows=38
nColumns=13
Range=5.000000e-03-10 seconds
endheader
time 	forceRightX 	forceRightY 	forceRightZ 	pointRightX 	pointRightY 	pointRightZ 	forceLeftX 	forceLeftY 	forceLeftZ 	pointLeftX 	pointLeftY 	pointLeftZ 		
2.505000 120.536781 413.346108 -0.000000 0.305017 0.151958 -0.136322 -33.783546 1.015265 -0.000000 0.265405 0.490481 -0.374040
2.510000 120.786861 393.943097 -0.000000 0.301001 0.150355 -0.136366 -39.148738 10.627997 -0.000000 0.269895 0.491776 -0.373997
2.515000 120.158036 373.556224 -0.000000 0.296936 0.148861 -0.136511 -44.512172 20.909540 -0.000000 0.274393 0.492981 -0.373841
2.520000 118.535084 352.257931 -0.000000 0.292907 0.147605 -0.136551 -49.901547 31.679332 -0.000000 0.278840 0.494036 -0.373732
2.525000 116.001971 330.076859 -0.000000 0.288918 0.146053 -0.136694 -55.350584 42.792711 -0.000000 0.283231 0.494910 -0.373602
2.530000 112.701110 307.043647 -0.000000 0.284928 0.145014 -0.136735 -60.875287 54.156289 -0.000000 0.287632 0.495625 -0.373468
2.535000 108.432532 283.372040 -0.000000 0.281139 0.144491 -0.136773 -66.542428 65.652805 -0.000000 0.291893 0.496202 -0.373403
2.540000 103.615141 259.113679 -0.000000 0.277304 0.143652 -0.136832 -72.279166 77.323524 -0.000000 0.296157 0.496675 -0.373334
2.545000 98.405753 234.460173 -0.000000 0.273269 0.143106 -0.136956 -78.011795 89.208360 -0.000000 0.300352 0.496990 -0.373370
2.550000 92.614280 209.801028 -0.000000 0.269445 0.142580 -0.137091 -83.828583 101.281036 -0.000000 0.304459 0.497082 -0.373381
2.555000 86.514726 185.394117 -0.000000 0.265602 0.142200 -0.137235 -89.708974 113.714548 -0.000000 0.308436 0.497079 -0.373513
2.560000 80.331330 161.545886 -0.000000 0.261707 0.141968 -0.137394 -95.627916 126.730435 -0.000000 0.312365 0.496846 -0.373511
2.565000 74.143773 138.622354 -0.000000 0.257923 0.142051 -0.137484 -101.654409 140.477999 -0.000000 0.316175 0.496475 -0.373512
2.570000 68.248829 116.826141 -0.000000 0.254133 0.142151 -0.137601 -107.675365 155.232181 -0.000000 0.320081 0.495952 -0.373198
2.575000 62.707459 96.391861 -0.000000 0.250332 0.142428 -0.137695 -113.812765 171.102794 -0.000000 0.323811 0.495299 -0.373025
2.580000 57.667783 77.391199 -0.000000 0.246482 0.142881 -0.137780 -120.078798 188.281106 -0.000000 0.327380 0.494229 -0.372998
2.585000 53.181818 59.843740 -0.000000 0.242611 0.143371 -0.137929 -126.581069 206.876847 -0.000000 0.330923 0.493270 -0.373050
2.590000 49.297667 43.671499 -0.000000 0.238692 0.144125 -0.138100 -133.329887 227.015043 -0.000000 0.334393 0.492005 -0.373031
2.595000 46.000908 28.787587 -0.000000 0.234722 0.145318 -0.138395 -140.441245 248.700040 -0.000000 0.337707 0.490609 -0.372961
2.600000 43.279391 15.118056 -0.000000 0.230730 0.146582 -0.138733 -148.010222 271.926103 -0.000000 0.341015 0.489090 -0.373016
2.605000 41.109439 2.659940 -0.000000 0.226689 0.148081 -0.139104 -156.184982 296.628589 -0.000000 0.344227 0.487479 -0.372958
2.610000 39.458206 -8.562885 -0.000000 0.222627 0.149833 -0.139366 -164.981270 322.709444 -0.000000 0.347389 0.485458 -0.372967
2.615000 38.284004 -18.514265 -0.000000 0.218464 0.151690 -0.139692 -174.511134 349.862494 -0.000000 0.350524 0.483261 -0.373030
2.620000 37.560365 -27.183897 -0.000000 0.214469 0.153809 -0.140013 -185.023637 377.579808 -0.000000 0.353631 0.480850 -0.373122
2.625000 37.239218 -34.653719 -0.000000 0.210383 0.156015 -0.140209 -196.330201 405.498661 -0.000000 0.356761 0.478223 -0.373166
2.630000 37.301731 -41.014627 -0.000000 0.206343 0.158389 -0.140525 -208.522352 433.113251 -0.000000 0.359859 0.475272 -0.373228
2.635000 37.723493 -46.406946 -0.000000 0.202260 0.161003 -0.140939 -221.422754 460.078088 -0.000000 0.362974 0.472177 -0.373318
2.640000 38.519706 -50.948215 -0.000000 0.198275 0.163843 -0.141424 -235.098736 485.958028 -0.000000 0.366072 0.468914 -0.373420
2.645000 39.681967 -54.756222 -0.000000 0.194313 0.167024 -0.141754 -249.238460 510.533157 -0.000000 0.369088 0.465399 -0.373503
2.650000 41.247550 -57.875639 -0.000000 0.190371 0.170272 -0.141933 -263.990505 533.429405 -0.000000 0.372057 0.461843 -0.373589
2.655000 43.178578 -60.363118 -0.000000 0.186419 0.173768 -0.142130 -279.071927 554.620226 -0.000000 0.374931 0.458135 -0.373706
2.660000 45.407624 -62.241974 -0.000000 0.182573 0.177529 -0.142285 -294.259201 574.228719 -0.000000 0.377876 0.454182 -0.373701
2.665000 47.919636 -63.432574 -0.000000 0.178678 0.181401 -0.142610 -309.826839 592.218484 -0.000000 0.380661 0.450098 -0.373825
2.670000 50.667059 -63.838457 -0.000000 0.174903 0.185525 -0.142707 -325.399837 608.864677 -0.000000 0.383464 0.445870 -0.373936
2.675000 53.624702 -63.357693 -0.000000 0.171198 0.189915 -0.142849 -340.553711 624.463656 -0.000000 0.386193 0.441369 -0.374107
2.680000 56.815474 -61.892522 -0.000000 0.167571 0.194358 -0.143048 -355.500606 639.018159 -0.000000 0.388845 0.436779 -0.374133
2.685000 60.148297 -59.503151 -0.000000 0.164023 0.199057 -0.143093 -369.641316 653.032879 -0.000000 0.391413 0.431979 -0.374170
2.690000 63.583943 -56.253709 -0.000000 0.160558 0.203848 -0.143300 -383.212578 666.572162 -0.000000 0.393887 0.427073 -0.374179
